<?xml version="1.0" encoding="iso-8859-1"?>
<!-- Generator: Adobe Illustrator 16.0.0, SVG Export Plug-In . SVG Version: 6.00 Build 0)  -->
<!DOCTYPE svg PUBLIC "-//W3C//DTD SVG 1.1//EN" "http://www.w3.org/Graphics/SVG/1.1/DTD/svg11.dtd">
<svg version="1.1" id="Capa_1" xmlns="http://www.w3.org/2000/svg" xmlns:xlink="http://www.w3.org/1999/xlink" x="0px" y="0px"
	 width="548.317px" height="548.317px" viewBox="0 0 548.317 548.317" style="enable-background:new 0 0 548.317 548.317;"
	 xml:space="preserve">
<g>
	<g>
		<path d="M358.117,103.434c-2.065-3.309-8.491-6.187-12.393-6.187H235.755c-3.902,0-4.036,2.936-2.104,6.321l194.406,337.594
			c1.932,3.386,6.521,3.605,10.241,2.458l106.039-33.517c3.729-1.147,5.077-5.565,3.012-8.874L358.117,103.434z"/>
		<path d="M94.536,441.229l93.808-200.239v193.726c0,17.337,18.379,16.343,22.281,16.343h182.816c3.901,0,5.488-6.282,3.557-9.668
			L208.12,106.599c-1.932-3.385-5.059-3.385-6.99,0l-47.296,83.05c-1.932,3.385-6.254,7.669-9.667,9.562
			c-47.841,26.545-112.359,61.994-140.951,74.54c-4.284,1.884-4.045,7.286-0.708,10.557c6.359,6.216,19.871,20.436,32.35,37.562
			c7.258,9.964,13.607,21.076,18.81,32.102c1.664,3.528,1.348,9.17-0.583,12.564l-40.622,74.855
			c-1.912,3.386-0.315,9.668,3.586,9.668h68.229C88.177,451.06,92.767,444.71,94.536,441.229z M39.982,286.958
			c-1.75-1.55-1.549-3.615,0.526-4.705c20.129-10.538,115.362-60.521,141.841-76.71c1.999-1.224,2.725-0.574,1.664,1.511
			l-90.27,177.384c-1.062,2.085-2.276,1.913-2.792-0.373C87.556,369.07,73.776,316.85,39.982,286.958z"/>
	</g>
</g>
<g>
</g>
<g>
</g>
<g>
</g>
<g>
</g>
<g>
</g>
<g>
</g>
<g>
</g>
<g>
</g>
<g>
</g>
<g>
</g>
<g>
</g>
<g>
</g>
<g>
</g>
<g>
</g>
<g>
</g>
</svg>
