<?xml version="1.0" encoding="windows-1252"?>
<!-- Generator: Adobe Illustrator 19.0.0, SVG Export Plug-In . SVG Version: 6.00 Build 0)  -->
<svg version="1.1" id="Layer_1" xmlns="http://www.w3.org/2000/svg" xmlns:xlink="http://www.w3.org/1999/xlink" x="0px" y="0px" viewBox="0 0 503.861 503.861" style="enable-background:new 0 0 503.861 503.861;" xml:space="preserve">
<g>
	<g>
		<g>
			<path d="M83.936,394.62c-18.516,0-33.574,15.058-33.574,33.574c0,18.516,15.058,33.574,33.574,33.574     s33.574-15.058,33.574-33.574C117.51,409.677,102.452,394.62,83.936,394.62z"/>
			<path d="M302.166,50.488h-33.574c-4.625,0-8.393,3.769-8.393,8.393v134.261c0,5.204,3.962,7.252,5.179,7.756     s5.464,1.863,9.149-1.821l33.574-33.574c1.561-1.561,2.459-3.727,2.459-5.934V58.882     C310.559,54.257,306.79,50.488,302.166,50.488z"/>
			<path d="M413.223,58.11c-0.562-4.465-4.146-7.621-8.368-7.621h-35.538c-4.633,0-8.393,3.769-8.393,8.393v92.328     c0,4.625,3.76,8.393,8.393,8.393h48.128c3.71,0,7.521-1.486,9.476-3.702c1.293-1.469,1.326-2.728,1.209-3.651L413.223,58.11z"/>
			<path d="M478.426,195.568V36.244l15.377-23.065c1.721-2.577,1.88-5.884,0.42-8.62c-1.46-2.728-4.306-4.432-7.403-4.432H201.443     c-3.089,0-5.934,1.704-7.403,4.432c-1.452,2.736-1.293,6.043,0.42,8.62l15.377,23.065v182.112h-58.754v-58.754     c0-9.258,7.529-16.787,16.787-16.787c4.633,0,8.393-3.76,8.393-8.393v-33.574c0-4.633-3.76-8.393-8.393-8.393     c-37.023,0-67.148,30.124-67.148,67.148v58.754H67.148v-17.039c9.451-1.234,16.787-9.241,16.787-19.02V170.48     c0-10.626-8.645-19.271-19.271-19.271H19.271C8.645,151.209,0,159.854,0,170.48v11.818c0,9.778,7.344,17.786,16.787,19.02v17.039     H8.393c-4.633,0-8.393,3.76-8.393,8.393v25.18h41.967c4.633,0,8.393,3.76,8.393,8.393c0,4.633-3.76,8.393-8.393,8.393H0v16.787     h67.148c4.633,0,8.393,3.76,8.393,8.393c0,4.633-3.76,8.393-8.393,8.393H0v16.787h41.967c4.633,0,8.393,3.76,8.393,8.393     s-3.76,8.393-8.393,8.393H0v50.361c0,4.633,3.76,8.393,8.393,8.393h7.974c-5.053,10.131-7.974,21.504-7.974,33.574     c0,41.657,33.893,75.541,75.541,75.541c41.657,0,75.541-33.884,75.541-75.541c0-12.061-2.913-23.435-7.965-33.565h24.752v25.172     v33.574c0,4.633,3.76,8.393,8.393,8.393h50.361c4.633,0,8.393-3.76,8.393-8.393v-33.574v-32.18     c0.059-0.311,0.21-0.571,0.235-0.898c4.104-70.874,62.993-126.397,134.06-126.397c44.141,0,85.487,21.722,110.6,58.091     c2.065,2.988,5.8,4.306,9.266,3.282c3.483-1.016,5.909-4.146,6.026-7.772C504.446,288.568,504.824,210.357,478.426,195.568z      M64.663,184.783h-5.909H25.18h-5.909c-1.368,0-2.484-1.116-2.484-2.484V170.48c0-1.368,1.116-2.484,2.484-2.484h45.392     c1.368,0,2.484,1.116,2.484,2.484v11.818C67.148,183.666,66.031,184.783,64.663,184.783z M201.443,251.93     c4.642,0,8.393,3.76,8.393,8.393c0,4.633-3.752,8.393-8.393,8.393c-4.633,0-8.393-3.76-8.393-8.393     C193.049,255.691,196.809,251.93,201.443,251.93z M167.869,251.93c4.642,0,8.393,3.76,8.393,8.393     c0,4.633-3.752,8.393-8.393,8.393c-4.633,0-8.393-3.76-8.393-8.393C159.475,255.691,163.236,251.93,167.869,251.93z      M134.295,251.93c4.642,0,8.393,3.76,8.393,8.393c0,4.633-3.752,8.393-8.393,8.393c-4.633,0-8.393-3.76-8.393-8.393     C125.902,255.691,129.662,251.93,134.295,251.93z M83.934,486.947c-32.399,0-58.754-26.355-58.754-58.754     c0-13.975,4.927-26.809,13.102-36.906c1.343-1.662,2.753-3.24,4.247-4.726c0.159-0.159,0.336-0.302,0.495-0.453     c1.293-1.259,2.635-2.459,4.029-3.584c0.646-0.52,1.318-0.99,1.981-1.486c0.965-0.713,1.93-1.419,2.921-2.065     c0.789-0.52,1.603-0.999,2.417-1.469c0.94-0.554,1.897-1.083,2.862-1.586c0.856-0.436,1.729-0.856,2.61-1.251     c0.999-0.453,2.023-0.873,3.047-1.267c0.873-0.336,1.746-0.671,2.636-0.965c1.133-0.369,2.275-0.68,3.433-0.99     c0.823-0.218,1.645-0.453,2.493-0.638c1.343-0.294,2.711-0.495,4.079-0.697c0.688-0.101,1.368-0.243,2.065-0.319     c2.098-0.218,4.205-0.353,6.337-0.353c2.132,0,4.247,0.134,6.337,0.353c0.705,0.084,1.393,0.227,2.09,0.327     c1.36,0.193,2.719,0.394,4.054,0.688c0.848,0.185,1.679,0.428,2.51,0.646c1.15,0.302,2.291,0.613,3.416,0.982     c0.898,0.294,1.771,0.629,2.644,0.965c1.024,0.395,2.04,0.814,3.047,1.267c0.881,0.394,1.746,0.814,2.61,1.259     c0.965,0.495,1.914,1.024,2.854,1.578c0.814,0.478,1.628,0.957,2.417,1.469c0.999,0.655,1.972,1.36,2.938,2.073     c0.655,0.487,1.326,0.957,1.964,1.469c1.427,1.167,2.812,2.392,4.138,3.693c0.126,0.117,0.26,0.218,0.378,0.344     c1.502,1.494,2.929,3.089,4.281,4.759c8.167,10.089,13.077,22.914,13.077,36.881C142.688,460.591,116.333,486.947,83.934,486.947     z M134.295,335.865c-4.633,0-8.393-3.76-8.393-8.393v-33.574c0-4.633,3.76-8.393,8.393-8.393h67.148     c4.633,0,8.393,3.76,8.393,8.393v33.574c0,4.633-3.76,8.393-8.393,8.393H134.295z M226.623,411.406h-33.574v-16.779l33.574,0.008     V411.406z M327.344,159.569c0,6.732-2.619,13.052-7.378,17.802l-33.574,33.574c-4.877,4.885-11.163,7.445-17.643,7.445     c-3.265,0-6.58-0.655-9.795-1.981c-9.585-3.97-15.545-12.884-15.545-23.267V58.881c0-13.883,11.298-25.18,25.18-25.18h33.574     c13.891,0,25.18,11.298,25.18,25.18V159.569z M439.506,167.005c-5.187,5.875-13.438,9.384-22.058,9.384h-48.136     c-13.883,0-25.18-11.298-25.18-25.18V58.881c0-13.883,11.298-25.18,25.18-25.18h35.546c12.666,0,23.409,9.485,24.979,22.058     l14.915,94.141C445.558,156.295,443.686,162.28,439.506,167.005z"/>
			<rect x="142.69" y="302.29" width="50.361" height="16.787"/>
			<path d="M377.707,361.046c-18.516,0-33.574,15.058-33.574,33.574s15.058,33.574,33.574,33.574     c18.516,0,33.574-15.058,33.574-33.574S396.223,361.046,377.707,361.046z M377.707,411.406c-9.275,0-16.787-7.512-16.787-16.787     s7.512-16.787,16.787-16.787c9.275,0,16.787,7.512,16.787,16.787S386.981,411.406,377.707,411.406z"/>
			<path d="M478.428,369.439h-2.426c-2.51-9.585-6.505-18.919-11.793-27.539l1.612-1.612c3.273-3.273,3.273-8.586,0-11.868     l-21.915-21.915c-3.282-3.273-8.595-3.273-11.868,0l-1.612,1.612c-8.62-5.288-17.954-9.283-27.539-11.793v-2.426     c0-4.633-3.76-8.393-8.393-8.393H360.92c-4.633,0-8.393,3.76-8.393,8.393v2.426c-9.585,2.51-18.919,6.505-27.539,11.793     l-1.612-1.612c-3.273-3.273-8.586-3.273-11.868,0l-21.915,21.915c-3.273,3.282-3.273,8.595,0,11.868l1.612,1.612     c-5.288,8.62-9.283,17.954-11.793,27.539h-2.426c-4.633,0-8.393,3.76-8.393,8.393v33.574c0,4.633,3.76,8.393,8.393,8.393h2.426     c2.51,9.585,6.505,18.919,11.793,27.539l-1.612,1.612c-3.273,3.273-3.273,8.586,0,11.868l21.915,21.915     c3.282,3.273,8.595,3.273,11.868,0l1.612-1.612c8.62,5.288,17.962,9.292,27.539,11.793v2.426c0,4.633,3.76,8.393,8.393,8.393     h33.574c4.633,0,8.393-3.76,8.393-8.393v-2.426c9.577-2.501,18.919-6.505,27.539-11.793l1.612,1.612     c3.273,3.273,8.586,3.273,11.868,0l21.915-21.915c3.273-3.282,3.273-8.595,0-11.868l-1.612-1.612     c5.288-8.62,9.283-17.954,11.793-27.539h2.426c4.633,0,8.393-3.76,8.393-8.393v-33.574     C486.821,373.2,483.061,369.439,478.428,369.439z M377.707,444.98c-27.774,0-50.361-22.587-50.361-50.361     c0-27.774,22.587-50.361,50.361-50.361c27.774,0,50.361,22.587,50.361,50.361C428.067,422.393,405.48,444.98,377.707,444.98z"/>
		</g>
	</g>
</g>
<g>
</g>
<g>
</g>
<g>
</g>
<g>
</g>
<g>
</g>
<g>
</g>
<g>
</g>
<g>
</g>
<g>
</g>
<g>
</g>
<g>
</g>
<g>
</g>
<g>
</g>
<g>
</g>
<g>
</g>
</svg>