<?xml version="1.0" encoding="windows-1252"?>
<!-- Generator: Adobe Illustrator 18.0.0, SVG Export Plug-In . SVG Version: 6.00 Build 0)  -->
<!DOCTYPE svg PUBLIC "-//W3C//DTD SVG 1.1//EN" "http://www.w3.org/Graphics/SVG/1.1/DTD/svg11.dtd">
<svg version="1.1" id="Capa_1" xmlns="http://www.w3.org/2000/svg" xmlns:xlink="http://www.w3.org/1999/xlink" x="0px" y="0px" viewBox="0 0 297 297" style="enable-background:new 0 0 297 297;" xml:space="preserve">
<path d="M287.116,60.536c5.458,0,9.884-4.425,9.884-9.883V18.037c0-5.458-4.426-9.883-9.884-9.883H9.884  C4.426,8.154,0,12.579,0,18.037v32.616c0,5.458,4.426,9.883,9.884,9.883h6.424v175.927H9.884c-5.458,0-9.884,4.426-9.884,9.884  v32.616c0,5.458,4.426,9.883,9.884,9.883h277.232c5.458,0,9.884-4.425,9.884-9.883v-32.616c0-5.458-4.426-9.884-9.884-9.884h-6.424  v-45.625c4.632-0.818,8.153-4.855,8.153-9.723v-65.23c0-4.868-3.522-8.904-8.153-9.723V60.536H287.116z M65.231,236.463H36.075  v-78.079h29.156V236.463z M65.231,138.616H36.075v-78.08h29.156V138.616z M114.154,236.463H84.998v-78.079h29.156V236.463z   M114.154,138.616H84.998v-78.08h29.156V138.616z M163.078,236.463h-29.156v-78.079h29.156V236.463z M163.078,138.616h-29.156  v-78.08h29.156V138.616z M212.002,236.463h-29.157v-78.079h21.003v22.731c0,4.868,3.522,8.904,8.154,9.723V236.463z   M212.002,106.162c-4.632,0.818-8.154,4.854-8.154,9.723v22.731h-21.003v-78.08h29.157V106.162z M260.925,236.463h-29.156v-45.464  h29.156V236.463z M233.498,143.559c0-7.085,5.765-12.849,12.849-12.849c7.085,0,12.849,5.764,12.849,12.849  c0,4.102-1.939,7.752-4.941,10.106v4.719c0,4.366-3.54,7.906-7.907,7.906c-4.366,0-7.906-3.54-7.906-7.906v-4.719  C235.438,151.311,233.498,147.66,233.498,143.559z M260.925,106.001h-29.156V60.536h29.156V106.001z"/>
<g>
</g>
<g>
</g>
<g>
</g>
<g>
</g>
<g>
</g>
<g>
</g>
<g>
</g>
<g>
</g>
<g>
</g>
<g>
</g>
<g>
</g>
<g>
</g>
<g>
</g>
<g>
</g>
<g>
</g>
</svg>