<?xml version="1.0" encoding="UTF-8" standalone="no"?>
<!DOCTYPE svg PUBLIC "-//W3C//DTD SVG 20010904//EN" "http://www.w3.org/TR/2001/REC-SVG-20010904/DTD/svg10.dtd">
<svg version="1.0" xmlns="http://www.w3.org/2000/svg" width="960.000000pt" height="1280.000000pt" viewBox="0 0 960.000000 1280.000000" preserveAspectRatio="xMidYMid meet">
<metadata>
Created by potrace 1.15, written by Peter Selinger 2001-2017
</metadata>
<g transform="translate(0.000000,1280.000000) scale(0.100000,-0.100000)" fill="#000000" stroke="none">
<path d="M4635 12781 c-111 -25 -182 -54 -267 -110 -209 -137 -342 -355 -364 -601 l-7 -70 -34 0 c-52 0 -181 -28 -256 -56 -192 -73 -378 -259 -450 -451 -45 -120 -51 -154 -51 -293 0 -79 5 -154 12 -180 45 -159 116 -283 222 -388 124 -123 291 -202 471 -225 l89 -11 0 -798 0 -798 -799 0 -798 0 -7 70 c-34 343 -269 617 -611 710 -66 17 -224 23 -303 11 -286 -45 -534 -245 -631 -511 -24 -65 -51 -195 -51 -243 l0 -34 -70 -7 c-132 -12 -254 -54 -362 -125 -368 -241 -476 -722 -245 -1093 74 -120 197 -232 324 -296 61 -31 205 -71 283 -78 l67 -7 7 -67 c7 -78 47 -222 78 -283 36 -72 93 -150 154 -211 268 -269 688 -311 1003 -102 203 135 333 352 357 596 l7 70 798 0 799 0 0 -2399 0 -2398 -72 -7 c-432 -40 -752 -414 -724 -846 6 -103 14 -139 53 -243 71 -192 258 -378 450 -451 75 -28 204 -56 256 -56 l34 0 7 -70 c17 -188 98 -361 232 -494 312 -312 816 -312 1128 0 74 74 146 183 180 271 28 76 56 204 56 258 0 33 2 35 35 35 111 0 288 58 398 129 310 204 443 587 322 933 -103 296 -371 505 -682 534 l-73 7 0 2398 0 2399 798 0 798 0 11 -92 c42 -350 295 -622 645 -692 396 -80 799 167 912 558 15 49 29 119 32 156 l7 67 67 7 c78 7 222 47 283 78 321 162 500 524 431 866 -71 356 -357 615 -714 648 l-70 7 0 34 c0 19 -7 69 -16 111 -62 313 -284 546 -599 632 -66 17 -224 23 -303 11 -359 -56 -632 -339 -675 -698 l-11 -93 -798 0 -798 0 0 798 0 798 89 11 c340 43 597 270 692 613 18 62 18 292 0 355 -59 218 -173 381 -348 496 -110 71 -287 129 -398 129 -33 0 -35 2 -35 35 0 111 -58 288 -129 398 -183 279 -518 418 -836 348z"/>
</g>
</svg>