<?xml version="1.0" encoding="UTF-8"?>
<!-- Uploaded to SVGRepo https://www.svgrepo.com -->
<svg version="1.2" baseProfile="tiny" id="Layer_1" xmlns="http://www.w3.org/2000/svg" xmlns:xlink="http://www.w3.org/1999/xlink" x="0px" y="0px" viewBox="-1077 923 256 256" xml:space="preserve">
<g>
	<path d="M-934.7,1039.4c-0.2,0-0.3,0-0.5,0.1c-0.1,0-0.1,0-0.2-0.1l-23.4,3.5l-13.3-29.3c-1.8-3.6-4-6.6-6.7-8.9   c-1.1-1.1-2.5-2.1-3.9-3c-1.5-0.8-3-1.4-4.7-1.7c-4.3-1-8.2-0.4-11.8,1.7l-29.3,13.7c-2,1.3-3.9,1.8-4.4,2.1   c-3,2.1-3.5,3.2-3.9,3.9l-14.8,28.3c-0.1,0.3-0.2,0.6-0.3,0.8c-0.5,1.1-0.9,2.3-0.9,3.6c0,1.3,0.4,2.6,0.9,3.7c0.7,1.8,2,3,3.7,3.5   c1,0.5,2.2,0.8,3.4,0.8c3.2,0,5.9-1.9,7.2-4.5c0.1-0.2,0.2-0.3,0.3-0.5c9.2-17.2,13.8-25.9,13.8-26.1l15.7-3.7l-18.8,79.1   l-35.9-0.3c-0.1,0-0.1,0-0.2,0c-0.1,0-0.1,0-0.2,0c-4.7,0-8.6,3.8-8.6,8.6c0,4.4,3.3,7.9,7.5,8.5v0.1l10,0   c7.8,0.4,30.7,1.4,37.7,0.6c0.2,0,0.4,0.1,0.7,0.1c3.9,0,7.1-2.8,7.8-6.4l5.4-15.8l0,0c3.6-10.3,6-20.4,6-20.4   c9.4,9.9,16.4,16.3,22.8,23l11,36.1l2.3,8.7l0.1,0c1.2,3.8,4.7,6.6,8.9,6.6c5.2,0,9.4-4.2,9.4-9.4c0-0.7-0.1-1.5-0.3-2.2l-0.7-2.7   c0,0,0-0.1,0-0.1l-2-7.5l-2-7.4l0,0l-8.1-30c-1.1-2.8-2.1-5.5-4.4-8.1c0,0-22.5-25-23.1-25.3l5.1-24.2l7.1,15.1   c0.1,0.1,0.2,0.3,0.3,0.4c0.5,0.7,0.9,1.3,1.3,1.7c1.4,1.4,3.3,2.2,5.3,2.2c0.1,0,0.1,0,0.2,0c0.6,0,1.2-0.1,1.8-0.2l26.3-2.9   c0.1,0,0.2,0,0.2,0c0.7,0,1.3-0.1,1.9-0.3l0.4,0c0.1,0,0.1-0.1,0.2-0.1c3.1-1.1,5.4-4,5.4-7.4   C-926.8,1043-930.3,1039.4-934.7,1039.4z"/>
	<path d="M-984.2,995.1c4.4,0,8.2-1.6,11.3-4.7c3.1-3.1,4.7-6.8,4.7-11.1c0-4.4-1.6-8.2-4.7-11.3c-3.1-3.1-6.9-4.7-11.3-4.7   c-4.3,0-8,1.6-11.1,4.7c-3.1,3.1-4.7,6.9-4.7,11.3c0,4.3,1.6,8,4.7,11.1C-992.2,993.6-988.5,995.1-984.2,995.1z"/>
	<path d="M-897.2,948.6V1145l72.6,31.8V925.2L-897.2,948.6z M-886.1,1055.8c-1.4,0-2.6-4.4-2.6-9.8s1.2-9.8,2.6-9.8   c1.4,0,2.6,4.4,2.6,9.8S-884.6,1055.8-886.1,1055.8z"/>
</g>
</svg>