<?xml version="1.0" encoding="windows-1252"?>
<!-- Generator: Adobe Illustrator 16.0.0, SVG Export Plug-In . SVG Version: 6.00 Build 0)  -->
<!DOCTYPE svg PUBLIC "-//W3C//DTD SVG 1.1//EN" "http://www.w3.org/Graphics/SVG/1.1/DTD/svg11.dtd">
<svg version="1.1" id="Capa_1" xmlns="http://www.w3.org/2000/svg" xmlns:xlink="http://www.w3.org/1999/xlink" x="0px" y="0px" width="232.397px" height="232.397px" viewBox="0 0 232.397 232.397" style="enable-background:new 0 0 232.397 232.397;" xml:space="preserve">
<g>
	<path d="M198.637,108.169c-14.722-45.124-59.417-21.774-46.418-75.994c1.928-8.045,0.51-28.168-18.039-31.662   c-0.098-0.023-1.918-0.282-2.02-0.286c-18.212-2.603-25.124,17.846-26.074,26.064c-5.632,48.745-41.092,19.854-67.804,59.089   c-26.711,39.236,28.916,25.631,35.828,77.657c3.482,34.146-4.982,38.088-8.561,54.443c-7.149,32.688,52.416,8.922,77.042-44.711   C163.725,124.728,213.358,153.292,198.637,108.169z M127.152,25.92c-0.621,4.374-3.705,7.554-6.887,7.102   c-3.181-0.452-5.256-4.365-4.634-8.739c0.621-4.374,3.705-7.554,6.885-7.102C125.698,17.633,127.774,21.546,127.152,25.92z    M145.304,28.499c-0.622,4.374-3.705,7.554-6.889,7.102c-3.181-0.452-5.255-4.365-4.634-8.739s3.704-7.554,6.885-7.102   C143.85,20.212,145.926,24.125,145.304,28.499z"/>
</g>
<g>
</g>
<g>
</g>
<g>
</g>
<g>
</g>
<g>
</g>
<g>
</g>
<g>
</g>
<g>
</g>
<g>
</g>
<g>
</g>
<g>
</g>
<g>
</g>
<g>
</g>
<g>
</g>
<g>
</g>
</svg>