<?xml version="1.0" encoding="windows-1252"?>
<!-- Generator: Adobe Illustrator 17.1.0, SVG Export Plug-In . SVG Version: 6.00 Build 0)  -->
<!DOCTYPE svg PUBLIC "-//W3C//DTD SVG 1.1//EN" "http://www.w3.org/Graphics/SVG/1.1/DTD/svg11.dtd">
<svg version="1.1" id="Capa_1" xmlns="http://www.w3.org/2000/svg" xmlns:xlink="http://www.w3.org/1999/xlink" x="0px" y="0px" viewBox="0 0 294 294" style="enable-background:new 0 0 294 294;" xml:space="preserve">
<path d="M189,204.75c0-17.782,14.468-32.25,32.25-32.25c4.44,0,8.673,0.902,12.526,2.533c3.061-9.126,4.724-18.889,4.724-29.033  c0-25.392-10.4-48.398-27.16-64.992l-32.908,39.489c5.664,6.968,9.068,15.844,9.068,25.503c0,22.332-18.168,40.5-40.5,40.5  s-40.5-18.168-40.5-40.5s18.168-40.5,40.5-40.5c7.267,0,14.086,1.933,19.989,5.298l32.871-39.445  C184.921,60.744,166.676,54.5,147,54.5c-25.138,0-47.94,10.192-64.494,26.658C86.232,85.388,88.5,90.933,88.5,97  c0,13.233-10.767,24-24,24c-1.839,0-3.627-0.215-5.348-0.608C56.778,128.521,55.5,137.114,55.5,146c0,50.453,41.047,91.5,91.5,91.5  c17.678,0,34.198-5.045,48.205-13.762C191.308,218.407,189,211.844,189,204.75z M100.25,203c-8.685,0-15.75-7.065-15.75-15.75  s7.065-15.75,15.75-15.75S116,178.565,116,187.25S108.935,203,100.25,203z M152.762,151.302l15.775-18.93  c2.505,3.945,3.964,8.618,3.964,13.628c0,14.061-11.439,25.5-25.5,25.5s-25.5-11.439-25.5-25.5s11.439-25.5,25.5-25.5  c3.604,0,7.034,0.756,10.145,2.111l-15.906,19.088c-2.651,3.183-2.222,7.912,0.96,10.563c1.402,1.169,3.104,1.738,4.798,1.738  C149.145,154,151.278,153.081,152.762,151.302z M147,0C65.944,0,0,65.944,0,147s65.944,147,147,147s147-65.944,147-147  S228.056,0,147,0z M221.25,237c-5.024,0-9.782-1.156-14.025-3.214C190.084,245.583,169.336,252.5,147,252.5  c-58.725,0-106.5-47.775-106.5-106.5c0-11.791,1.93-23.138,5.483-33.748C42.559,108.103,40.5,102.787,40.5,97  c0-13.233,10.767-24,24-24c1.577,0,3.118,0.157,4.612,0.449C88.567,52.577,116.283,39.5,147,39.5  c23.324,0,44.917,7.543,62.479,20.309l14.259-17.111c2.652-3.181,7.383-3.61,10.563-0.96c3.182,2.651,3.611,7.381,0.96,10.563  l-14.294,17.153C241.014,88.832,253.5,115.983,253.5,146c0,13.561-2.553,26.536-7.195,38.476c4.495,5.544,7.195,12.599,7.195,20.274  C253.5,222.532,239.032,237,221.25,237z"/>
<g>
</g>
<g>
</g>
<g>
</g>
<g>
</g>
<g>
</g>
<g>
</g>
<g>
</g>
<g>
</g>
<g>
</g>
<g>
</g>
<g>
</g>
<g>
</g>
<g>
</g>
<g>
</g>
<g>
</g>
</svg>