<?xml version="1.0" encoding="windows-1252"?>
<!-- Generator: Adobe Illustrator 18.0.0, SVG Export Plug-In . SVG Version: 6.00 Build 0)  -->
<!DOCTYPE svg PUBLIC "-//W3C//DTD SVG 1.1//EN" "http://www.w3.org/Graphics/SVG/1.1/DTD/svg11.dtd">
<svg version="1.1" id="Capa_1" xmlns="http://www.w3.org/2000/svg" xmlns:xlink="http://www.w3.org/1999/xlink" x="0px" y="0px" viewBox="0 0 306.333 306.333" style="enable-background:new 0 0 306.333 306.333;" xml:space="preserve">
<g>
	<path d="M12.5,87.833c6.903,0,12.5-5.597,12.5-12.5V28.5h46.833c6.903,0,12.5-5.597,12.5-12.5s-5.597-12.5-12.5-12.5H12.5   C5.597,3.5,0,9.096,0,16v59.334C0,82.237,5.597,87.833,12.5,87.833z"/>
	<path d="M293.833,3.5H234.5C227.597,3.5,222,9.096,222,16s5.597,12.5,12.5,12.5h46.833v46.834c0,6.903,5.597,12.5,12.5,12.5   s12.5-5.597,12.5-12.5V16C306.333,9.096,300.736,3.5,293.833,3.5z"/>
	<path d="M71.833,277.833H25V231c0-6.903-5.597-12.5-12.5-12.5S0,224.096,0,231v59.334c0,6.903,5.597,12.5,12.5,12.5h59.333   c6.903,0,12.5-5.597,12.5-12.5S78.736,277.833,71.833,277.833z"/>
	<path d="M293.833,218.5c-6.903,0-12.5,5.597-12.5,12.5v46.834H234.5c-6.903,0-12.5,5.597-12.5,12.5s5.597,12.5,12.5,12.5h59.333   c6.903,0,12.5-5.597,12.5-12.5V231C306.333,224.096,300.736,218.5,293.833,218.5z"/>
	<path d="M228.037,258.327l8.425-31.172c2.242-8.297,1.055-17.148-3.295-24.561c-4.35-7.413-11.498-12.766-19.835-14.854   l-21.052-5.274c-6.826-1.71-11.614-7.845-11.614-14.882v-9.066c10.702-11.42,19.303-28.449,24.397-46.157   c7.408,0.328,14.857-6.178,17.405-15.753c2.841-10.674-1.482-21.091-9.658-23.267c-0.94-0.25-1.89-0.367-2.84-0.386   c-2.307-37.091-26.849-66.287-56.805-66.287c-29.956,0-54.497,29.197-56.805,66.287c-0.95,0.019-1.9,0.135-2.84,0.386   c-8.175,2.176-12.499,12.594-9.658,23.267c2.549,9.575,9.998,16.081,17.405,15.753c5.094,17.708,13.695,34.737,24.397,46.157v9.066   c0,7.037-4.788,13.172-11.614,14.882l-21.052,5.274c-8.337,2.089-15.485,7.441-19.835,14.854   c-4.35,7.413-5.537,16.263-3.295,24.561l8.425,31.172c1.809,6.691,7.879,11.339,14.811,11.339h120.119   C220.158,269.667,226.228,265.019,228.037,258.327z"/>
</g>
<g>
</g>
<g>
</g>
<g>
</g>
<g>
</g>
<g>
</g>
<g>
</g>
<g>
</g>
<g>
</g>
<g>
</g>
<g>
</g>
<g>
</g>
<g>
</g>
<g>
</g>
<g>
</g>
<g>
</g>
</svg>