<?xml version="1.0" encoding="windows-1252"?>
<!-- Generator: Adobe Illustrator 19.0.0, SVG Export Plug-In . SVG Version: 6.00 Build 0)  -->
<svg version="1.1" id="Capa_1" xmlns="http://www.w3.org/2000/svg" xmlns:xlink="http://www.w3.org/1999/xlink" x="0px" y="0px" viewBox="0 0 461.979 461.979" style="enable-background:new 0 0 461.979 461.979;" xml:space="preserve">
<g>
	<g id="XMLID_92_">
		<path id="XMLID_102_" d="M76.164,178.537l-8.168,30.271c5.459-10.253,12.332-19.027,20.604-26.245    c2.714-2.368,5.468-4.453,8.226-6.319l1.24-4.597c0.775-2.873,0.186-5.941-1.598-8.322s-4.563-3.809-7.538-3.872l-32.487-0.691    l34.958-14.315c2.483-1.017,4.433-3.019,5.382-5.529c0.95-2.509,0.815-5.3-0.372-7.707L77.997,93.89l37.29,18.25    c2.865,1.403,6.238,1.302,9.015-0.268s4.602-4.407,4.878-7.585l5.313-61.152l26.218,49.395c1.593,3,4.643,4.946,8.036,5.125    c3.38,0.181,6.63-1.434,8.531-4.25l25.947-38.449l0.724,41.566c0.051,2.897,1.397,5.62,3.669,7.418    c2.273,1.799,5.231,2.485,8.062,1.868l36.914-8.029l-26.369,18.99c-2.669,1.922-4.179,5.068-4.008,8.352    c0.17,3.285,1.997,6.257,4.85,7.893l31.339,17.969l-42.677-1.089c-3.243-0.067-6.293,1.456-8.155,4.099    c-1.863,2.643-2.282,6.042-1.117,9.059l15.623,40.46l-44.999-26.97c-2.37-1.421-5.234-1.761-7.872-0.933    c-2.637,0.828-4.793,2.743-5.927,5.264l-2.535,5.639c0.013,4.104-0.995,8.212-3.043,11.897    c-4.607,8.292-8.696,22.485,0.621,40.682l18.144-40.356l49.386,29.6l15.811-27.82l-11.935-30.906l29.165,0.744    c7.935-12.413,21.591-20.146,36.372-20.541l-45.55-26.116l51.949-37.412c3.72-2.679,5.05-7.602,3.184-11.79    s-6.412-6.49-10.895-5.517l-70.865,15.415l-1.053-60.445c-0.074-4.222-2.876-7.909-6.925-9.108    c-4.045-1.199-8.407,0.364-10.769,3.865l-34.095,50.522L136.232,5.14c-2.01-3.787-6.27-5.801-10.475-4.945    c-4.202,0.854-7.339,4.373-7.71,8.644l-6.925,79.718L61.018,64.035c-3.72-1.821-8.184-1.072-11.106,1.86    c-2.923,2.932-3.656,7.399-1.824,11.112l26.38,53.463L6.041,158.491c-4.243,1.738-6.684,6.214-5.846,10.722    c0.837,4.507,4.723,7.808,9.307,7.906L76.164,178.537z"/>
		<path id="XMLID_1179_" d="M171.385,284.705c-51.804-43.216-39.523-80.967-31.165-96.011c1.741-3.133-0.862-6.929-4.412-6.446    c-17.095,2.322-53.202,14.276-61.577,73.28c-0.017,0.122-0.018,0.246-0.033,0.368c-9.709-8.529-23.212-10.715-34.506-10.715    c-1.082,0-2.142,0.02-3.178,0.056c-4.511,0.159-5.839,6.316-1.785,8.302c48.015,23.516-13.261,69.994-24.482,109.588    c-14.543,51.317,18.999,73.454,37.703,81.561c0.589,0.255,1.182,0.372,1.755,0.372c2.953,0,5.375-3.086,4.024-6.107    c-12.198-27.281-1.761-65.21,16.959-84.128c18.929-19.129,21.501-34.544,19.659-55.44c-0.242-2.751,2.006-4.809,4.406-4.809    c0.865,0,1.749,0.267,2.544,0.865c19.086,14.35,26.698,47.266,18.9,72.422c-0.89,2.871,1.313,5.666,4.139,5.666    c0.312,0,0.631-0.034,0.955-0.106c6.931-1.534,16.896-5.668,22.029-16.787c0.749-1.623,2.343-2.677,4.032-2.677    c0.444,0,0.894,0.073,1.337,0.227c25.673,8.917,38.853,51.752,28.151,87.7c-0.864,2.901,1.444,5.597,4.208,5.597    c0.495,0,1.005-0.086,1.514-0.274C217.031,434.522,242.185,343.768,171.385,284.705z"/>
		<path id="XMLID_1180_" d="M359.159,318.189c-18.461-7.651-22.007-9.121-44.121-18.286l30.842-54.266l-39.908-5.064l73.258-7.676    l0,0c5.813-0.61,10.974-4.081,13.712-9.312l32.489-62.085c4.492-8.582,1.171-19.183-7.408-23.671    c-8.647-4.525-19.23-1.078-23.671,7.408l-28.129,53.753l-66.341,6.952l40.127-15.085l-31.448-17.873    c-11.895-6.761-26.843-2.465-33.481,9.215l-31.472,55.374l0,0c-3.053,5.371-28.151,49.532-31.198,54.893l0.052-0.009    c-3.991,7.694-2.89,17.259,3.137,23.851c1.062,1.162-3.283-2.932,49.298,45.936v78.688c0,11.624,9.423,21.046,21.046,21.046    s21.046-9.423,21.046-21.046c0-9.401,0-78.545,0-87.861c0-4.625-1.527-9.081-4.282-12.714c10.63,4.406,17.363,7.196,27.763,11.507    l2.681,89.697c0.341,11.404,9.693,20.418,21.025,20.418c11.905,0,21.403-9.831,21.049-21.676l-3.087-103.3    C371.89,328.724,366.81,321.36,359.159,318.189z"/>
		<path id="XMLID_1181_" d="M459.224,195.653c-5.183-8.183-16.02-10.614-24.202-5.431l-8.405,5.324l-18.758,35.846    c-7.488,14.309-22.681,19.231-30.75,18.208l-12.702-1.612c21.437,8.007,22.1,8.627,26.264,8.627c3.282,0,6.543-0.921,9.386-2.722    l53.735-34.038C461.976,214.671,464.407,203.836,459.224,195.653z"/>
		<path id="XMLID_1182_" d="M333.14,174.433c7.823,4.446,16.595,5.663,24.789,4.091l21.505-41.095    c1.506-2.878,3.381-5.478,5.547-7.76c-2.92-7.529-8.35-14.14-15.919-18.441c-17.453-9.919-39.643-3.812-49.563,13.641    c-5.375,9.458-6.035,20.304-2.743,29.838C319.539,162.767,325.144,169.889,333.14,174.433z"/>
	</g>
</g>
<g>
</g>
<g>
</g>
<g>
</g>
<g>
</g>
<g>
</g>
<g>
</g>
<g>
</g>
<g>
</g>
<g>
</g>
<g>
</g>
<g>
</g>
<g>
</g>
<g>
</g>
<g>
</g>
<g>
</g>
</svg>