<?xml version="1.0" encoding="windows-1252"?>
<!-- Generator: Adobe Illustrator 16.0.0, SVG Export Plug-In . SVG Version: 6.00 Build 0)  -->
<!DOCTYPE svg PUBLIC "-//W3C//DTD SVG 1.1//EN" "http://www.w3.org/Graphics/SVG/1.1/DTD/svg11.dtd">
<svg version="1.1" id="Capa_1" xmlns="http://www.w3.org/2000/svg" xmlns:xlink="http://www.w3.org/1999/xlink" x="0px" y="0px" viewBox="0 0 67.716 67.716" style="enable-background:new 0 0 67.716 67.716;" xml:space="preserve" width="500px" height="500px">
<g>
	<g>
		<path d="M55.255,54.207c-0.169-0.091-0.341-0.113-0.498-0.178c-0.187-0.07-0.378-0.155-0.561-0.224    c-0.137-0.057-0.297-0.114-0.454-0.137c-0.13-0.019-0.256-0.055-0.34-0.205c-0.051-0.077-0.13-0.126-0.196-0.178    c-0.292-0.21-0.575-0.418-0.867-0.628c-0.191-0.144-0.383-0.275-0.579-0.422c-0.123-0.082-0.205-0.169-0.317-0.26    c-0.052-0.05-0.079-0.146-0.139-0.176c-0.406-0.187-0.707-0.593-1.057-0.919c-0.187-0.178-0.396-0.345-0.531-0.584    c-0.396-0.676-0.894-1.168-1.382-1.702c-0.215-0.246-0.42-0.524-0.644-0.787c-0.048-0.062-0.101-0.111-0.15-0.166    c-0.185-0.191-0.37-0.393-0.548-0.57c-0.146-0.152-0.323-0.292-0.475-0.424c-0.36-0.274-0.666-0.609-0.885-1.104    c-0.135-0.314-0.306-0.611-0.447-0.922c-0.05-0.114-0.068-0.251-0.104-0.378c-0.087-0.445-0.251-0.821-0.47-1.127    c-0.107-0.128-0.247-0.192-0.343-0.315c-0.096-0.1-0.148-0.246-0.228-0.374c-0.068-0.155-0.169-0.306-0.261-0.465    c-0.043-0.099-0.086-0.198-0.13-0.311c-0.057-0.237-0.166-0.347-0.319-0.355c-0.098-0.005-0.187,0.007-0.273,0.036    c-0.244,0.972-0.545,1.994-1.002,3.161c-1.286,3.333-1.131,6.349-0.072,8.719c0-0.005,0.002-0.009,0.004-0.014    c0.064-0.23,0.133-0.475,0.194-0.709c0.053-0.126,0.109-0.244,0.162-0.358c0.077-0.146,0.169-0.27,0.221-0.429    c0.107-0.319,0.189-0.657,0.254-0.99c0.063-0.311,0.125-0.63,0.191-0.931c0.048-0.16,0.13-0.287,0.196-0.432    c0.059-0.093,0.121-0.182,0.125-0.284c0.066-0.529,0.13-1.059,0.191-1.593c0.014-0.082,0.01-0.164,0.005-0.246    c-0.005-0.438,0.057-0.849,0.191-1.232c0.112-0.26,0.249-0.328,0.44-0.214c0.014,0.019,0.062,0.036,0.08,0.036    c0.239,0.025,0.369,0.233,0.479,0.524c0.017,0.078,0.044,0.179,0.08,0.224c0.178,0.167,0.191,0.397,0.191,0.671    c0,0.683,0,1.364,0,2.044c-0.018,0.86-0.05,1.72-0.065,2.577c-0.007,0.165-0.062,0.322-0.066,0.484    c-0.082,0.57-0.188,1.12-0.379,1.643c-0.063,0.243-0.239,0.439-0.205,0.748c0,0.027-0.041,0.05-0.05,0.079    c-0.097,0.206-0.192,0.413-0.295,0.623c-0.062,0.123-0.121,0.251-0.178,0.379c0.422,0.424,0.881,0.803,1.375,1.127    c-0.027-0.183-0.05-0.365-0.05-0.548c0.005-0.442,0.169-0.743,0.488-0.734c0.101,0,0.246,0.032,0.301,0.132    c0.146,0.271,0.365,0.319,0.57,0.43c0.142,0.075,0.251,0.21,0.384,0.301c0.246,0.187,0.502,0.358,0.738,0.548    c0.119,0.093,0.27,0.15,0.306,0.41c0,0.073,0.062,0.139,0.124,0.201c0.1,0.15,0.146,0.323,0.173,0.506    c0.244,0.05,0.493,0.096,0.746,0.123c-0.002-0.004-0.005-0.009-0.007-0.014c-0.084-0.137-0.146-0.349-0.21-0.52    c-0.166-0.331-0.304-0.693-0.49-0.972c-0.244-0.365-0.466-0.785-0.785-1.021c-0.173-0.116-0.312-0.306-0.447-0.458    c-0.127-0.13-0.262-0.256-0.388-0.384c-0.248-0.236-0.477-0.474-0.7-0.714c-0.127-0.13-0.299-0.216-0.319-0.483    c-0.009-0.087-0.05-0.171-0.055-0.253c-0.007-0.317-0.007-0.634,0-0.949c0.014-0.191,0.051-0.392,0.105-0.563    c0.169-0.545,0.675-0.613,0.948-0.148c0.037,0.083,0.089,0.155,0.151,0.229c0.164,0.242,0.321,0.502,0.513,0.723    c0.116,0.14,0.253,0.222,0.381,0.331c0.064,0.048,0.126,0.096,0.178,0.144c0.128,0.121,0.256,0.24,0.379,0.367    c0.105,0.117,0.21,0.242,0.319,0.361c0.082,0.1,0.16,0.191,0.251,0.287c0.101,0.128,0.215,0.262,0.328,0.379    c0.128,0.123,0.261,0.219,0.393,0.333c0.068,0.068,0.142,0.123,0.196,0.216c0.105,0.196,0.237,0.276,0.383,0.358    c0.192,0.096,0.343,0.288,0.514,0.438c0.308,0.262,0.591,0.529,0.895,0.789c0.285,0.251,0.574,0.502,0.866,0.748    c0.03,0.032,0.075,0.041,0.096,0.068c0.135,0.101,0.258,0.21,0.379,0.311c1.723-0.553,3.077-1.588,4.088-2.961    c-0.321,0.022-0.641-0.019-0.958-0.27C55.718,54.504,55.474,54.342,55.255,54.207z"/>
		<path d="M57.552,48.674c-0.107-0.051-0.222-0.071-0.299-0.15c-0.137-0.14-0.276-0.302-0.397-0.475    c-0.219-0.302-0.42-0.623-0.625-0.922c-0.101-0.146-0.205-0.292-0.33-0.379c-0.145-0.094-0.183-0.26-0.244-0.424    c-0.051-0.146-0.114-0.285-0.179-0.42c-0.014-0.06-0.077-0.096-0.104-0.146c-0.118-0.176-0.237-0.347-0.355-0.529    c-0.114-0.153-0.233-0.292-0.315-0.471c-0.132-0.314-0.196-0.702-0.444-0.907c-0.021-0.025-0.048-0.101-0.071-0.16    c-0.111-0.362-0.278-0.654-0.479-0.917c-0.096-0.116-0.191-0.23-0.239-0.378c-0.158-0.425-0.312-0.831-0.56-1.173    c-0.05-0.077-0.063-0.196-0.111-0.297c-0.062-0.23-0.105-0.47-0.183-0.693c-0.144-0.429-0.28-0.849-0.431-1.274    c-0.042-0.112-0.042-0.263-0.105-0.345c-0.128-0.169-0.196-0.35-0.191-0.607c0-0.096-0.023-0.191-0.046-0.292    c-0.101-0.688-0.232-1.375-0.326-2.07c-0.053-0.461-0.057-0.937-0.077-1.409c0-0.43,0.024-0.864-0.121-1.268    c-0.007-0.049-0.007-0.114-0.007-0.173c-0.002-0.977-0.021-1.953-0.048-2.931c-0.019-1.327,0.036-2.651,0.109-3.97    c0.048-0.417,0.019-0.849,0.187-1.226c0.005-0.033,0.005-0.08,0.005-0.12c0.032-0.486,0.058-0.972,0.068-1.458    c0.027-0.278,0.06-0.555,0.068-0.831c0.007-0.052,0.055-0.096,0.055-0.147c0.041-0.086,0.062-0.173,0.082-0.266    c0.046-0.342,0.037-0.728,0.133-1.02c0.191-0.532,0.169-1.128,0.306-1.67c0.077-0.266,0.055-0.595,0.118-0.876    c0.128-0.606,0.192-1.237,0.319-1.848c0.133-0.584,0.146-1.23,0.192-1.852c0.022-0.271,0.036-0.52,0.127-0.771    c0.083-0.194,0.064-0.458,0.126-0.685c0.041-0.283,0.114-0.558,0.144-0.843c0.068-0.446,0.164-0.894,0.181-1.348    c0.007-0.546,0.253-0.92,0.398-1.369c0.114-0.308,0.237-0.602,0.306-0.92c0.128-0.486,0.128-1.037,0.319-1.5    c0.039-0.109,0.073-0.221,0.128-0.336c0.16-0.424,0.114-0.953,0.37-1.362c0.159-0.268,0.182-0.73,0.282-1.093    c0.082-0.252,0.114-0.537,0.306-0.717c0.064-0.074,0.128-0.264,0.128-0.411c0.002-0.014,0.005-0.028,0.007-0.042    c-0.589-0.584-1.195-1.11-1.827-1.54c-0.068,0.08-0.128,0.167-0.201,0.241c-0.15,0.176-0.214,0.421-0.292,0.657    c-0.05,0.121-0.141,0.206-0.221,0.299c-0.066,0.084-0.148,0.138-0.21,0.241c-0.13,0.357-0.258,0.727-0.386,1.095    c-0.111,0.299-0.205,0.601-0.287,0.916c-0.05,0.218-0.107,0.412-0.246,0.535c-0.188,0.168-0.167,0.481-0.242,0.729    c-0.183,0.642-0.352,1.299-0.524,1.944c-0.105,0.352-0.235,0.691-0.306,1.051c-0.114,0.404-0.183,0.827-0.246,1.238    c-0.128,0.608-0.256,1.212-0.36,1.82c-0.069,0.377-0.114,0.761-0.16,1.144c-0.009,0.04,0.005,0.091-0.019,0.122    c-0.23,0.596-0.239,1.287-0.354,1.931c-0.121,0.546-0.13,1.128-0.191,1.696c-0.048,0.39-0.08,0.778-0.13,1.168    c0,0.082,0,0.167,0,0.25c-0.053,0.488-0.082,0.976-0.128,1.462c-0.055,0.521-0.118,1.038-0.146,1.558    c-0.064,0.974-0.114,1.946-0.174,2.917c0,0.026,0,0.051-0.005,0.075c-0.214,0.771-0.1,1.562-0.075,2.347    c0.005,0.101-0.024,0.208-0.048,0.308c-0.014,0.196-0.063,0.39-0.065,0.589c-0.017,0.656,0.014,1.316-0.017,1.969    c-0.109,1.782-0.048,3.566-0.048,5.348c-0.004,0.933,0,1.875,0.066,2.794c0.06,0.582,0.246,1.147,0.386,1.699    c0.091,0.297,0.248,0.541,0.371,0.819c0.021,0.08,0.034,0.185,0.051,0.28c0.022,0.208,0.087,0.311,0.232,0.365    c0.096,0.029,0.188,0.077,0.244,0.169c0.23,0.328,0.427,0.707,0.641,1.021c0.233,0.299,0.37,0.717,0.671,0.89    c0.021,0.012,0.034,0.037,0.043,0.064c0.145,0.531,0.536,0.661,0.783,1.017c0.15,0.229,0.323,0.438,0.467,0.703    c0.121,0.232,0.315,0.383,0.45,0.584c0.182,0.21,0.321,0.436,0.487,0.65c0.087,0.139,0.188,0.31,0.302,0.392    c0.123,0.089,0.219,0.217,0.301,0.354c0.251,0.343,0.522,0.648,0.762,0.99c0.13,0.15,0.192,0.352,0.278,0.529    c0.064,0.137,0.123,0.287,0.206,0.41c0.139,0.215,0.219,0.758,0.139,1.002c-0.103,0.244-0.299,0.495-0.557,0.454    c-0.395-0.055-0.732-0.283-0.97-0.748c-0.12-0.233-0.241-0.478-0.369-0.708c-0.027-0.059-0.077-0.096-0.13-0.144    c-0.128-0.139-0.244-0.262-0.253-0.526c-0.01-0.315-0.201-0.475-0.343-0.676c-0.169-0.224-0.297-0.458-0.456-0.68    c-0.077-0.104-0.16-0.185-0.224-0.28c-0.101-0.107-0.191-0.222-0.256-0.331c-0.063-0.073-0.127-0.169-0.191-0.21    c-0.661-0.422-1.24-1.03-1.788-1.697c-0.27-0.328-0.511-0.716-0.767-1.064c-0.217-0.288-0.447-0.541-0.661-0.838    c-0.191-0.265-0.36-0.561-0.553-0.839c-0.062-0.114-0.127-0.27-0.209-0.335c-0.363-0.258-0.384-0.773-0.493-1.239    c-0.104-0.511-0.128-1.033-0.128-1.564c-0.002-2.423-0.031-4.846-0.059-7.271c0-0.199,0-0.399,0.009-0.598    c0.005-0.114,0.009-0.25,0.05-0.334c0.133-0.268,0.128-0.569,0.128-0.878c0-0.498,0-0.997,0-1.495    c0.019-0.808,0.039-1.619,0.091-2.419c0.078-1.065,0.165-2.124,0.196-3.196c0.032-0.967,0.096-1.929,0.16-2.891    c0.046-0.582,0.103-1.157,0.142-1.733c0.036-0.301,0.05-0.604,0.063-0.907c0.019-0.101,0.05-0.217,0.089-0.289    c0.094-0.167,0.089-0.356,0.094-0.557c0.014-0.221,0.06-0.439,0.063-0.659c0.06-0.431,0.092-0.861,0.133-1.289    c0.007-0.054,0.032-0.107,0.055-0.152c0.096-0.203,0.128-0.427,0.152-0.68c0.039-0.372,0.131-0.729,0.196-1.094    c0.034-0.119,0.034-0.245,0.039-0.361c0.082-0.372,0.178-0.738,0.249-1.112c0.043-0.203,0.063-0.417,0.125-0.611    c0.082-0.351,0.21-0.687,0.319-1.04c0.063-0.243,0.068-0.52,0.133-0.754c0.127-0.446,0.31-0.867,0.446-1.311    c0.101-0.348,0.174-0.72,0.256-1.072c0.062-0.227,0.144-0.444,0.215-0.666c0.072-0.219,0.141-0.441,0.221-0.656    c0.126-0.356,0.267-0.699,0.388-1.061c0.107-0.35,0.198-0.724,0.302-1.074c0.036-0.138,0.125-0.25,0.187-0.374    c0.094-0.196,0.196-0.399,0.292-0.591c0.121-0.223,0.253-0.435,0.386-0.649c-0.401-0.192-0.803-0.363-1.209-0.488    c-0.025,0.016-0.048,0.027-0.068,0.054c-0.157,0.245-0.331,0.511-0.493,0.761c-0.191,0.28-0.41,0.25-0.492-0.089    c-0.048-0.159-0.048-0.375-0.025-0.534c0.029-0.14,0.073-0.273,0.111-0.412C49.855,0.039,49.419,0.002,48.983,0    c-0.116,0.248-0.258,0.458-0.364,0.729c-0.121,0.324-0.331,0.593-0.45,0.948c-0.077,0.215-0.241,0.374-0.306,0.584    c-0.13,0.357-0.234,0.735-0.34,1.107c-0.024,0.051-0.048,0.105-0.048,0.156c-0.239,0.631-0.456,1.259-0.688,1.892    c-0.077,0.238-0.142,0.493-0.21,0.738c-0.142,0.433-0.283,0.86-0.424,1.29c-0.055,0.184-0.104,0.368-0.146,0.558    c-0.032,0.074-0.029,0.168-0.063,0.234c-0.128,0.285-0.254,0.568-0.206,0.932c0,0.021-0.018,0.046-0.022,0.069    c-0.05,0.332-0.101,0.666-0.155,0.998c-0.057,0.287-0.082,0.577-0.128,0.864c-0.048,0.252-0.091,0.504-0.127,0.759    c-0.014,0.155-0.005,0.316-0.041,0.467c-0.068,0.43-0.145,0.855-0.215,1.28c-0.039,0.185-0.13,0.363-0.13,0.546    c-0.036,0.949,0.039,1.901-0.062,2.853c-0.06,0.521,0,1.063,0,1.596c0,0.338,0.005,0.68-0.13,0.983    c-0.017,0.049-0.005,0.129-0.01,0.194c-0.029,0.5-0.052,1.002-0.062,1.504c-0.027,0.544-0.055,1.09-0.055,1.638    c0,1.371,0,2.742,0,4.115c0,0.201,0.051,0.401,0.064,0.6c0.009,0.096,0.048,0.189,0.048,0.285    c0.007,1.421,0.016,2.843,0.007,4.266c-0.003,0.372,0.072,0.769-0.121,1.097c-0.016,0.015-0.009,0.05-0.012,0.073    c-0.05,0.399-0.091,0.798-0.114,1.199c-0.062,0.591-0.082,1.182-0.13,1.771c-0.048,0.488-0.111,0.974-0.127,1.462    c-0.053,0.554-0.062,1.115-0.078,1.672c-0.012,0.267,0.053,0.511,0.196,0.707c0.073,0.105,0.13,0.251,0.201,0.352    c0.212,0.265,0.383,0.598,0.704,0.671c0.109,0.022,0.251,0.164,0.278,0.303c0.046,0.194,0.146,0.283,0.233,0.393    c0.082,0.094,0.154,0.208,0.228,0.321c0.078,0.124,0.128,0.27,0.219,0.374c0.181,0.233,0.384,0.445,0.57,0.676    c0.215,0.28,0.397,0.615,0.644,0.871c0.278,0.285,0.511,0.662,0.767,0.994c0.128,0.179,0.26,0.341,0.393,0.525    c0.229,0.31,0.438,0.639,0.647,0.944c0.123,0.173,0.301,0.296,0.393,0.492c0.15,0.292,0.323,0.514,0.52,0.717    c0.312,0.323,0.603,0.687,0.927,0.989c0.314,0.285,0.634,0.502,0.951,0.765c0.139,0.116,0.253,0.304,0.392,0.401    c0.502,0.35,1.016,0.689,1.521,1.006c0.174,0.109,0.379,0.137,0.57,0.196c0.135,0.046,0.27,0.075,0.418,0.119    c0.262,0.086,0.522,0.2,0.789,0.255c0.396,0.085,0.828,0.119,1.225,0.196c0.109,0.019,0.192,0.123,0.274,0.188    c0.096,0.062,0.173,0.166,0.248,0.175c0.297,0.034,0.587,0.049,0.876,0.071c0.336-0.94,0.568-1.953,0.717-3.004    c-0.066-0.017-0.133-0.044-0.199-0.058C58.402,49.011,57.962,48.886,57.552,48.674z"/>
		<path d="M42.718,33.317c0.048-0.299,0.148-0.591,0.162-0.892c0.048-0.773,0.063-1.549,0.068-2.322    c0.016-0.631,0-1.264,0.007-1.897c0.002-0.266,0.011-0.528-0.103-0.756c-0.034-0.042-0.039-0.111-0.039-0.167    c-0.005-0.977-0.048-1.955-0.05-2.932c-0.005-0.782,0.05-1.567,0.05-2.349c0.005-0.715,0-1.43,0.005-2.145    c0-0.115,0.018-0.229,0.043-0.343c0.019-0.249,0.077-0.495,0.082-0.748c0.043-0.371,0.062-0.75,0.066-1.124    c0.039-0.406,0.06-0.818,0.077-1.221c0.048-0.584,0.101-1.168,0.137-1.752c0.03-0.254-0.004-0.54,0.073-0.757    c0.092-0.277,0.092-0.551,0.092-0.836c0.004-0.074,0.009-0.147,0.022-0.221c0.043-0.43,0.087-0.858,0.121-1.288    c0.018-0.109,0.048-0.219,0.057-0.328c0.053-0.189,0.105-0.37,0.119-0.563c0.063-0.395,0.082-0.792,0.13-1.188    c0.016-0.204,0.048-0.405,0.062-0.605c0.034-0.129,0.063-0.252,0.109-0.379c0.027-0.159,0.104-0.324,0.091-0.476    c-0.036-0.722,0.201-1.353,0.292-2.03c0.039-0.341,0.146-0.67,0.23-0.992c0.126-0.436,0.278-0.853,0.427-1.281    c0.014-0.1,0.066-0.201,0.073-0.303c0.014-0.252,0.091-0.437,0.219-0.593c0.096-0.125,0.178-0.262,0.171-0.481    c-0.002-0.091,0.048-0.187,0.08-0.273c0.107-0.301,0.256-0.584,0.347-0.903c0.039-0.185,0.13-0.33,0.201-0.488    c-2.665,1.331-4.918,4.529-6.255,8.666c-0.021,0.081-0.039,0.161-0.06,0.243c-0.075,0.292-0.162,0.575-0.205,0.874    c-0.044,0.233-0.062,0.495,0.077,0.716c0.068,0.094,0.082,0.281,0.114,0.433c0,0.171,0,0.345,0.014,0.517    c0.05,0.413,0.135,0.82,0.15,1.233c0.027,0.804,0.027,1.611,0.027,2.417c0,0.208,0.01,0.416,0.017,0.622    c0.009,0.341,0.036,0.682,0.021,1.021c-0.037,0.782-0.099,1.565-0.099,2.35c0,0.867-0.029,1.73,0.053,2.604    c0.073,0.925,0.032,1.872,0.062,2.808c0.012,0.486,0.039,0.97,0.07,1.453c0.003,0.016,0.005,0.033,0.005,0.049    c0.009,0.136,0.021,0.27,0.032,0.403c0.241,0.678,0.492,1.355,0.789,2.019c0.729,1.614,1.313,2.994,1.752,4.282    C42.709,33.362,42.718,33.339,42.718,33.317z"/>
		<path d="M59.128,43.311c-0.213-0.13-0.425-0.248-0.635-0.413c-0.253-0.2-0.472-0.474-0.729-0.707    c-0.126-0.12-0.256-0.224-0.384-0.335c-0.036-0.034-0.077-0.066-0.104-0.116c-0.087-0.278-0.215-0.493-0.406-0.625    c-0.031-0.017-0.045-0.078-0.063-0.123c-0.128-0.411-0.256-0.826-0.384-1.232c-0.082-0.234-0.191-0.451-0.255-0.684    c-0.062-0.138-0.062-0.315-0.123-0.437c-0.116-0.243-0.201-0.48-0.183-0.791c0-0.032,0-0.068-0.014-0.101    c-0.073-0.424-0.191-0.842-0.253-1.272c-0.064-0.393-0.131-0.799-0.181-1.2c-0.019-0.232-0.075-0.462-0.098-0.695    c-0.044-0.241-0.062-0.484-0.099-0.725c-0.007-0.217-0.036-0.439-0.06-0.656c-0.011-0.269-0.063-0.537-0.068-0.806    c-0.004-1.006-0.004-2.009,0.123-3.016c0.069-0.707,0.003-1.432,0.128-2.158c0.078-0.537,0.064-1.125,0.128-1.691    c0.073-0.749,0.119-1.516,0.273-2.24c0.109-0.471,0.124-0.967,0.249-1.436c0.203-0.748,0.34-1.535,0.504-2.299    c0.06-0.205,0.16-0.388,0.188-0.595c0.063-0.428,0.169-0.822,0.31-1.21c0.073-0.236,0.089-0.516,0.146-0.768    c0.05-0.143,0.087-0.307,0.164-0.396c0.096-0.125,0.146-0.266,0.162-0.448c0.048-0.319,0.098-0.653,0.173-0.945    c0.167-0.493,0.367-0.963,0.541-1.442c0.032-0.062,0.032-0.138,0.036-0.208c0.06-0.354,0.145-0.687,0.27-1.014    c0.114-0.303,0.174-0.673,0.239-1.021c0.014-0.143,0.058-0.227,0.13-0.306c0.105-0.089,0.24-0.223,0.251-0.35    c0.046-0.639,0.29-1.164,0.413-1.752c0.021-0.075,0.034-0.15,0.053-0.225c-0.552-1.229-1.182-2.355-1.875-3.354    c-0.068,0.187-0.144,0.365-0.226,0.544c-0.09,0.206-0.158,0.421-0.227,0.642c-0.118,0.379-0.147,0.818-0.392,1.096    c-0.027,0.023-0.037,0.072-0.048,0.112c-0.044,0.185-0.085,0.365-0.128,0.549c-0.101,0.358-0.191,0.717-0.278,1.075    c-0.087,0.304-0.167,0.607-0.235,0.915c-0.062,0.222-0.062,0.481-0.15,0.67c-0.096,0.199-0.164,0.39-0.208,0.62    c-0.096,0.481-0.273,0.934-0.392,1.408c-0.034,0.163-0.003,0.383-0.058,0.526c-0.178,0.446-0.159,0.969-0.278,1.436    c-0.127,0.495-0.251,1.002-0.357,1.506c-0.03,0.185-0.062,0.381-0.085,0.57c-0.046,0.189-0.063,0.379-0.116,0.562    c-0.048,0.241-0.121,0.472-0.148,0.713c-0.055,0.308-0.098,0.626-0.13,0.938c-0.096,0.64-0.18,1.283-0.258,1.925    c-0.046,0.234-0.022,0.506-0.111,0.689c-0.107,0.25-0.13,0.495-0.13,0.771c-0.014,0.219-0.064,0.439-0.105,0.653    c-0.022,0.167-0.084,0.325-0.087,0.491c-0.063,0.583-0.104,1.172-0.127,1.762c-0.064,0.747-0.105,1.492-0.131,2.24    c-0.034,0.537-0.062,1.074-0.062,1.612c-0.004,1.072-0.022,2.144-0.004,3.216c0.004,0.516,0.065,1.03,0.125,1.544    c0.053,0.588,0.126,1.178,0.198,1.767c0.014,0.239,0.064,0.479,0.103,0.711c0.08,0.384,0.217,0.739,0.213,1.164    c-0.014,0.251,0.068,0.465,0.191,0.647c0.05,0.08,0.107,0.176,0.132,0.283c0.092,0.529,0.288,0.98,0.512,1.416    c0.077,0.153,0.12,0.354,0.178,0.531c0.043,0.138,0.096,0.271,0.162,0.393c0.043,0.073,0.139,0.096,0.171,0.176    c0.107,0.365,0.308,0.604,0.511,0.854c0.237,0.285,0.396,0.68,0.639,0.96c0.312,0.36,0.637,0.652,0.967,0.977    c0.145,0.137,0.278,0.287,0.423,0.424c0.335,0.333,0.718,0.539,1.037,0.97c0.112,0.169,0.254,0.308,0.404,0.413    c0.009,0.004,0.018,0.009,0.029,0.019c-0.009-0.311-0.016-0.619-0.036-0.929C59.142,44.477,59.137,43.895,59.128,43.311z"/>
		<path d="M60.494,11.281c-0.107,0.47-0.222,0.935-0.354,1.399c-0.068,0.261-0.142,0.514-0.21,0.778    c-0.123,0.451-0.249,0.904-0.352,1.359c-0.089,0.346-0.173,0.687-0.224,1.042c-0.057,0.283-0.062,0.559-0.241,0.771    c-0.06,0.075-0.073,0.231-0.082,0.358c-0.06,0.39-0.119,0.785-0.183,1.175c-0.007,0.17-0.051,0.336-0.064,0.504    c-0.057,0.236-0.086,0.47-0.127,0.706c-0.03,0.168-0.064,0.334-0.069,0.502c-0.041,0.241-0.057,0.481-0.079,0.724    c-0.044,0.406-0.092,0.813-0.126,1.219c-0.014,0.103-0.045,0.206-0.045,0.308c-0.032,0.136-0.06,0.269-0.064,0.405    c-0.021,0.137-0.039,0.275-0.063,0.411c-0.041,0.343-0.085,0.687-0.133,1.03c-0.059,0.312-0.111,0.62-0.15,0.927    c-0.036,0.192-0.077,0.379-0.098,0.573c-0.025,0.278-0.012,0.563-0.064,0.834c-0.062,0.492-0.016,1.027-0.196,1.488    c-0.007,0.014-0.002,0.032-0.002,0.049c-0.032,0.99-0.055,1.983-0.055,2.974c0,0.392,0.036,0.785,0.062,1.177    c0,0.105,0,0.214,0.005,0.32c0.059,0.417,0.125,0.836,0.187,1.249c0.107,0.617,0.191,1.243,0.336,1.835    c0.137,0.538,0.351,1.038,0.526,1.556c0.114,0.338,0.244,0.671,0.354,1.011c0.064,0.162,0.078,0.384,0.169,0.488    c0.082,0.107,0.137,0.244,0.191,0.381c0.183-1.757,0.461-3.47,0.785-5.186c-0.017-0.145-0.027-0.292-0.048-0.437    c-0.014-0.214-0.048-0.432-0.078-0.649c-0.009-0.227-0.027-0.458-0.062-0.684c-0.027-0.381-0.091-0.757-0.109-1.141    c-0.021-0.646-0.012-1.295-0.021-1.946c0-0.252-0.032-0.504-0.048-0.756c-0.005-0.086,0.021-0.175,0.036-0.262    c0.021-0.219,0.078-0.437,0.09-0.658c0.048-0.25,0.057-0.5,0.098-0.753c0.019-0.266,0.082-0.533,0.082-0.798    c0.012-0.321,0.016-0.631,0.21-0.853c0.036-0.025,0.046-0.079,0.046-0.125c0.063-0.367,0.086-0.742,0.146-1.103    c0.105-0.528-0.019-1.121,0.237-1.596c0.009-0.021,0-0.065,0.005-0.098c0.109-0.435,0.159-0.898,0.314-1.289    c0.105-0.288,0.237-0.537,0.314-0.869c0.087-0.448,0.242-0.885,0.391-1.297c0.043-0.101,0.07-0.21,0.107-0.317    C61.635,15.575,61.165,13.318,60.494,11.281z"/>
		<path d="M11.821,45.051c0.049-0.219,0.084-0.453,0.098-0.684c0.024-0.191,0.047-0.345,0.178-0.44    c0.191-0.13,0.127-0.449,0.194-0.664c0.067-0.187,0.119-0.401,0.189-0.561c0.194-0.374,0.383-0.753,0.476-1.212    c0.035-0.114,0.093-0.212,0.143-0.308c0.196-0.36,0.405-0.698,0.584-1.077c0.145-0.351,0.458-0.52,0.545-0.96    c0.233-0.153,0.335-0.545,0.611-0.659c0.126-0.05,0.196-0.283,0.323-0.434c0.065-0.094,0.128-0.191,0.185-0.289    c0.056-0.097,0.114-0.192,0.158-0.295c0.105-0.224,0.194-0.461,0.306-0.668c0.118-0.183,0.183-0.354,0.218-0.6    c0.03-0.183,0.117-0.343,0.156-0.521c0.074-0.287,0.134-0.584,0.194-0.873c0.061-0.254,0.121-0.516,0.17-0.771    c0.124-0.584,0.323-1.126,0.355-1.75c0.03-0.299,0.154-0.58,0.212-0.876c0.042-0.227,0.061-0.468,0.089-0.7    c0.014-0.129,0.049-0.253,0.062-0.379c0.052-0.234,0.091-0.467,0.129-0.7c0.063-0.267,0.124-0.536,0.154-0.806    c0.038-0.288,0.067-0.58,0.1-0.869c0.061-0.328,0.103-0.654,0.145-0.981c0.047-0.254,0.091-0.507,0.112-0.762    c0.061-0.383,0.107-0.77,0.145-1.156c0.012-0.052,0.045-0.096,0.052-0.146c0.053-0.141,0.12-0.286,0.12-0.429    c0-0.449,0.093-0.851,0.189-1.266c0.046-0.243,0.053-0.503,0.076-0.75c0.038-0.172,0.058-0.341,0.118-0.508    c0.069-0.379,0.174-0.753,0.254-1.128c0.074-0.303,0.147-0.608,0.247-0.9c0.07-0.271,0.192-0.528,0.268-0.792    c0.185-0.486,0.341-0.974,0.505-1.462c0.027-0.064,0.063-0.12,0.089-0.18c0.103-0.189,0.199-0.374,0.294-0.568    c0.039-0.079,0.054-0.203,0.096-0.254c0.182-0.189,0.163-0.502,0.235-0.761c0.115-0.367,0.18-0.746,0.27-1.121    c0.04-0.209,0.077-0.426,0.104-0.638c0.024-0.087,0.052-0.169,0.061-0.253c0.031-0.172,0.064-0.348,0.078-0.521    c0.049-0.32,0.112-0.641,0.166-0.958c0.062-0.343,0.234-0.633,0.213-1.014c-0.002-0.016,0.002-0.038,0.014-0.047    c0.196-0.266,0.187-0.651,0.28-0.983c0.025-0.096,0.067-0.18,0.103-0.271c-0.829-0.45-1.7-0.731-2.595-0.784    c-0.086-0.005-0.173,0.011-0.257,0.009c-0.138,0.439-0.28,0.876-0.42,1.323c-0.082,0.337-0.136,0.703-0.222,1.046    c-0.105,0.39-0.234,0.769-0.332,1.156c-0.042,0.183-0.072,0.381-0.116,0.56c-0.063,0.227-0.149,0.439-0.232,0.659    c-0.007,0.072-0.065,0.14-0.065,0.214c-0.129,0.537-0.254,1.07-0.32,1.62c-0.065,0.478-0.288,0.88-0.294,1.396    c-0.002,0.299-0.133,0.593-0.187,0.896c-0.039,0.234-0.093,0.473-0.093,0.716c-0.005,0.175-0.041,0.32-0.128,0.439    c-0.129,0.147-0.129,0.339-0.147,0.557c-0.036,0.364-0.098,0.724-0.141,1.086c-0.033,0.243-0.056,0.483-0.096,0.72    c-0.047,0.165-0.129,0.318-0.138,0.485c-0.054,0.311-0.087,0.631-0.129,0.941c-0.086,0.505-0.172,1.009-0.25,1.509    c-0.161,0.811-0.272,1.633-0.506,2.42c-0.191,0.682-0.218,1.436-0.32,2.153c-0.063,0.407-0.027,0.836-0.192,1.229    c-0.062,0.202-0.049,0.481-0.065,0.724c-0.061,0.533-0.131,1.065-0.203,1.598c-0.014,0.066-0.049,0.138-0.075,0.183    c-0.13,0.165-0.172,0.369-0.166,0.619c0,0.393-0.062,0.756-0.189,1.116c-0.058,0.194-0.056,0.431-0.08,0.641    c-0.049,0.205-0.093,0.403-0.123,0.606c-0.054,0.21-0.075,0.424-0.12,0.63c-0.065,0.265-0.143,0.524-0.229,0.779    c-0.046,0.16-0.28,0.188-0.345,0.044c-0.078-0.13-0.151-0.276-0.192-0.432c-0.108-0.458-0.208-0.926,0-1.391    c0.016-0.06,0.014-0.145,0.014-0.217c0.002-0.533-0.014-1.065,0.012-1.596c0.011-0.326,0.046-0.651,0.1-0.974    c0.033-0.373,0.071-0.745,0.131-1.113c0.062-0.3,0.191-0.59,0.191-0.878c-0.004-0.372,0.21-0.582,0.201-0.939    c-0.007-0.339,0.042-0.68,0.056-1.017c0.061-0.551,0.126-1.099,0.189-1.649c0.007-0.124,0-0.25,0.007-0.373    c0.049-0.255,0.082-0.507,0.122-0.76c0.047-0.294,0.072-0.588,0.128-0.883c0-0.098,0.026-0.191,0.049-0.287    c0.021-0.189,0.066-0.381,0.084-0.57c0.059-0.283,0.112-0.567,0.159-0.85c0.051-0.304,0.126-0.606,0.164-0.912    c0.07-0.437,0.132-0.876,0.182-1.319c0.064-0.528,0.093-1.059,0.138-1.586c0.009-0.077,0.026-0.189,0.054-0.221    c0.192-0.178,0.207-0.475,0.255-0.755c0.063-0.397,0.128-0.793,0.192-1.193c0.011-0.129,0-0.265,0.011-0.395    c0.023-0.143,0.03-0.301,0.067-0.421c0.176-0.426,0.198-0.92,0.303-1.375c0.091-0.383,0.136-0.783,0.209-1.175    c0.009-0.031,0.037-0.054,0.047-0.084c0.13-0.462,0.266-0.923,0.385-1.395c0.072-0.303,0.112-0.637,0.174-0.948    c0.076-0.343,0.154-0.68,0.241-1.021c0.084-0.36,0.159-0.725,0.239-1.083c-1.157,0.287-2.298,0.821-3.388,1.611    c-0.007,0.019-0.016,0.038-0.021,0.056c-0.107,0.33-0.183,0.67-0.245,1.006c-0.129,0.496-0.187,1.033-0.353,1.477    c-0.234,0.619-0.222,1.312-0.349,1.95c-0.062,0.199-0.056,0.421-0.072,0.628c-0.018,0.082-0.054,0.166-0.109,0.217    c-0.111,0.136-0.138,0.299-0.16,0.514c-0.041,0.439-0.105,0.874-0.166,1.311c-0.011,0.226-0.051,0.453-0.067,0.68    c-0.056,0.319-0.089,0.638-0.126,0.958c-0.056,0.335-0.089,0.672-0.129,1.008c-0.025,0.236-0.025,0.479-0.065,0.704    c-0.061,0.205-0.143,0.39-0.212,0.583c-0.029,0.056-0.042,0.119-0.042,0.182c-0.038,0.591-0.062,1.183-0.08,1.776    c-0.012,0.194-0.049,0.388-0.054,0.582c-0.054,0.325-0.082,0.646-0.121,0.969c-0.024,0.184-0.062,0.369-0.063,0.553    c-0.063,0.388-0.107,0.776-0.132,1.166c-0.06,0.577-0.103,1.154-0.143,1.731c-0.056,0.7-0.111,1.405-0.183,2.098    c-0.061,0.479-0.12,0.95-0.136,1.438c-0.007,0.196-0.112,0.39-0.163,0.588c-0.011,0.045-0.02,0.091-0.02,0.138    c0.008,0.738-0.191,1.42-0.254,2.142c-0.04,0.282-0.125,0.548-0.189,0.825c-0.096,0.37-0.175,0.744-0.25,1.113    c-0.062,0.242-0.145,0.468-0.191,0.712c-0.141,0.657-0.254,1.325-0.39,1.984c-0.124,0.635-0.248,1.264-0.388,1.892    c-0.067,0.321-0.179,0.627-0.243,0.946c-0.021,0.155,0,0.328-0.009,0.493c-0.007,0.086-0.016,0.202-0.053,0.25    c-0.161,0.196-0.171,0.471-0.192,0.739c-0.018,0.179-0.049,0.363-0.093,0.524c-0.023,0.073-0.044,0.142-0.065,0.21    c0.464,2.889,0.752,5.817,0.531,9.093c-0.143,2.085,0.021,4.133,0.508,5.977c0.076-0.229,0.083-0.479,0.091-0.732    c0.04-0.449,0.084-0.892,0.117-1.341c0.008-0.099,0.01-0.196,0.01-0.297c-0.006-0.765,0.109-1.499,0.286-2.21    c0.024-0.062,0.024-0.131,0.024-0.192c-0.004-0.306,0.049-0.579,0.14-0.842c0.051-0.106,0.051-0.244,0.063-0.369    c0.051-0.401,0.114-0.806,0.156-1.211c0.017-0.071,0.024-0.144,0.024-0.215c-0.009-0.369,0.062-0.688,0.174-1.021    c0.08-0.261,0.096-0.563,0.157-0.84c0.101-0.399,0.199-0.787,0.288-1.184c0.081-0.432,0.145-0.874,0.233-1.303    c0.051-0.287,0.147-0.557,0.208-0.842c0.037-0.21,0.065-0.431,0.096-0.641c0.039-0.142,0.054-0.315,0.121-0.406    c0.105-0.164,0.129-0.355,0.183-0.562C11.584,45.804,11.713,45.435,11.821,45.051z"/>
		<path d="M24.908,51.288c-0.023,0.182-0.04,0.369-0.047,0.547c-0.021,0.105-0.056,0.21-0.093,0.311    c-0.044,0.159-0.136,0.31-0.154,0.479c-0.065,0.566-0.149,1.132-0.191,1.704c0,0.322-0.063,0.589-0.191,0.837    c-0.002,0.037-0.007,0.097-0.012,0.14c-0.051,0.632-0.117,1.264-0.18,1.891c-0.062,0.594-0.127,1.187-0.203,1.775    c-0.086,0.516-0.209,1.015-0.308,1.528c-0.038,0.278-0.038,0.574-0.064,0.854c-0.063,0.541-0.09,1.103-0.217,1.608    c-0.112,0.475-0.154,0.94-0.166,1.429c-0.044,0.531-0.084,1.062-0.129,1.592c-0.004,0.046-0.009,0.091-0.014,0.135    c1.371-0.979,2.452-2.375,3.092-4.072c0.047-0.518,0.075-1.04,0.126-1.56c0.016-0.121,0.051-0.235,0.065-0.352    c0.049-0.244,0.056-0.488,0.107-0.728c0.071-0.514,0.198-0.999,0.218-1.54c0.004-0.137,0.042-0.278,0.062-0.415    c-0.105-1.149-0.366-2.361-0.852-3.62C25.403,52.916,25.133,52.084,24.908,51.288z"/>
		<path d="M27.293,18.21c-0.033,0.194-0.078,0.388-0.061,0.575c0.002,0.312-0.077,0.562-0.167,0.827    c-0.021,0.052-0.022,0.11-0.022,0.166c-0.049,0.37-0.078,0.74-0.129,1.11c-0.019,0.187-0.058,0.371-0.063,0.558    c-0.062,0.591-0.129,1.183-0.191,1.776c-0.054,0.481-0.049,0.985-0.145,1.438c-0.109,0.414-0.109,0.818-0.116,1.234    c-0.024,0.45-0.049,0.901-0.071,1.349c-0.034,0.288-0.114,0.568-0.119,0.855c-0.024,0.653,0.042,1.322-0.015,1.966    c-0.081,0.889,0.008,1.778-0.049,2.659c-0.125,1.642-0.058,3.283-0.06,4.929c-0.012,0.857-0.005,1.711-0.002,2.568    c0.243-0.567,0.495-1.145,0.778-1.772c0.947-2.101,1.556-4.274,1.932-6.442c-0.024-1.327-0.022-2.658-0.009-3.985    c0.002-0.201,0.049-0.399,0.077-0.6c0.031-0.217,0.035-0.439,0.035-0.66c0.033-0.534,0.061-1.072,0.067-1.605    c0.002-0.055,0.015-0.125,0.049-0.162c0.054-0.098,0.075-0.206,0.096-0.315c-0.23-2.71-0.812-5.265-1.695-7.479    C27.371,17.535,27.329,17.871,27.293,18.21z"/>
		<path d="M23.082,49.905c0.19-0.685,0.308-1.392,0.395-2.107c0.051-0.288,0.085-0.575,0.134-0.858    c0.022-0.068,0.06-0.137,0.111-0.188c0.127-0.176,0.191-0.386,0.191-0.65c0.025-0.306,0.088-0.609,0.128-0.912    c0.031-0.199,0.064-0.399,0.075-0.601c0.035-0.198,0.051-0.398,0.067-0.6c0.058-0.493,0.117-0.99,0.175-1.482    c0.063-0.541,0.128-1.082,0.192-1.622c0-0.044,0-0.085,0-0.126c0.034-0.728,0.014-1.459,0.093-2.176    c0.088-0.762,0.086-1.528,0.035-2.276c-0.063-1.004,0-2.007-0.063-3.002c-0.129-1.814,0-3.633-0.049-5.445    c-0.007-0.167,0.049-0.336,0.069-0.504c0.033-0.185,0.047-0.369,0.05-0.554c0.009-0.656-0.008-1.312,0.009-1.968    c0.011-0.453,0.049-0.907,0.069-1.36c0.024-0.32,0.042-0.642,0.049-0.96c0.016-0.138,0.038-0.299,0.089-0.395    c0.093-0.17,0.093-0.354,0.103-0.553c0.054-0.421,0.12-0.83,0.183-1.248c0.007-0.096,0.029-0.194,0.025-0.292    c-0.014-0.257,0.04-0.47,0.147-0.691c0.08-0.165,0.044-0.417,0.083-0.622c0.067-0.402,0.168-0.796,0.254-1.197    c0-0.045,0.017-0.096,0.013-0.141c-0.026-0.484,0.116-0.905,0.206-1.346c0.065-0.33,0.114-0.664,0.187-0.99    c0.025-0.113,0.056-0.223,0.085-0.332c-0.759-1.332-1.63-2.467-2.59-3.343c-0.016,0.105-0.062,0.194-0.069,0.303    c-0.026,0.22-0.108,0.428-0.154,0.641c-0.102,0.397-0.204,0.792-0.292,1.186c-0.046,0.138-0.068,0.274-0.122,0.409    c-0.044,0.193-0.098,0.385-0.138,0.582c-0.061,0.245-0.123,0.497-0.175,0.746c-0.11,0.495-0.233,0.988-0.334,1.487    c-0.056,0.201-0.04,0.423-0.064,0.633c-0.062,0.533-0.127,1.063-0.191,1.595c-0.025,0.17,0,0.319,0.104,0.444    c0.034,0.056,0.07,0.167,0.077,0.259c0.011,0.199,0.002,0.397,0.007,0.597c0.004,1.474-0.011,2.952,0.068,4.416    c0.063,0.963,0.047,1.918,0.049,2.875c0.009,1.379-0.049,2.757-0.049,4.134c0,0.288,0.014,0.577,0.058,0.86    c0.012,0.274-0.096,0.468-0.149,0.691c-0.031,0.082-0.042,0.167-0.047,0.248c-0.002,0.49-0.004,0.981,0.005,1.472    c0,0.112,0.038,0.224,0.031,0.333c-0.015,0.16-0.031,0.315-0.073,0.468c-0.04,0.249-0.086,0.5-0.145,0.746    c-0.063,0.269-0.121,0.531-0.172,0.796c-0.02,0.153-0.082,0.311-0.082,0.468c-0.007,0.533-0.25,0.944-0.367,1.412    c-0.125,0.488-0.297,0.951-0.404,1.446c-0.089,0.354-0.206,0.682-0.312,1.023c-0.134,0.553-0.223,1.146-0.328,1.716    c-0.124,0.625-0.301,1.223-0.453,1.825c-0.118,0.429-0.248,0.853-0.262,1.332c-0.002,0.059-0.034,0.125-0.047,0.187    c-0.116,0.47-0.208,0.94-0.334,1.403c-0.243,0.855-0.282,1.79-0.56,2.625c-0.112,0.333-0.129,0.726-0.194,1.088    c-0.033,0.112-0.061,0.213-0.098,0.322c-0.029,0.178-0.075,0.354-0.094,0.533c-0.054,0.21-0.078,0.425-0.126,0.635    c-0.062,0.392-0.128,0.789-0.191,1.186c-0.049,0.188-0.063,0.379-0.114,0.57c-0.044,0.292-0.089,0.584-0.143,0.872    c-0.062,0.323-0.128,0.643-0.191,0.967c-0.063,0.374-0.105,0.762-0.254,1.115c-0.063,0.189-0.049,0.459-0.072,0.689    c-0.062,0.439-0.145,0.876-0.207,1.315c-0.063,0.45-0.105,0.903-0.168,1.355c-0.062,0.345-0.129,0.685-0.185,1.024    c0,0.014-0.007,0.027-0.007,0.043c0.042,0.383-0.075,0.68-0.243,0.96c-0.011,0.021-0.011,0.064-0.011,0.094    c0.018,0.662,0.051,1.323,0.058,1.984c0.002,0.153-0.062,0.306-0.117,0.461c-0.009,0.128-0.07,0.256-0.07,0.384    c0,0.41,0,0.825,0,1.236c0.553,0.096,1.13,0.159,1.752,0.159c0.822,0,1.614-0.128,2.375-0.349    c0.009-0.099,0.019-0.194,0.025-0.292c0.024-0.278,0.064-0.55,0.064-0.828c0.036-0.365,0.053-0.734,0.072-1.102    c0.054-0.406,0.105-0.812,0.138-1.216c0.019-0.114,0.014-0.233,0.047-0.343c0.042-0.232,0.107-0.456,0.149-0.687    c0.038-0.107,0.042-0.226,0.042-0.335c0.062-0.415,0.129-0.835,0.185-1.25c0.007-0.073,0.018-0.142,0.016-0.215    c-0.007-0.267-0.005-0.524,0.143-0.739c0.042-0.055,0.042-0.168,0.042-0.255c0.002-0.384,0.079-0.734,0.192-1.088    c0.074-0.268,0.104-0.577,0.143-0.865c0.046-0.183,0.058-0.364,0.107-0.547c0.07-0.377,0.136-0.751,0.199-1.129    c0.062-0.345,0.104-0.705,0.191-1.043c0.114-0.475,0.198-0.949,0.257-1.446c0.06-0.393,0.154-0.771,0.236-1.154    c0.007-0.018,0.018-0.031,0.018-0.045c-0.018-0.471,0.236-0.835,0.207-1.328c-0.015-0.319,0.112-0.65,0.159-0.98    C23.019,50.284,23.036,50.088,23.082,49.905z"/>
		<path d="M8.205,31.055c0.058-0.718,0.089-1.433,0.248-2.126c0.061-0.281,0.051-0.586,0.08-0.878    c0.041-0.196,0.081-0.388,0.117-0.579c0.022-0.077,0.069-0.152,0.06-0.225c-0.009-0.504,0.171-0.934,0.25-1.4    c0.033-0.271,0.035-0.582,0.133-0.806c0.203-0.486,0.225-1.025,0.274-1.558c0.047-0.39,0.034-0.827,0.152-1.151    c0.14-0.365,0.14-0.752,0.212-1.118c0.096-0.368,0.171-0.747,0.231-1.125c0.065-0.404,0.096-0.817,0.159-1.222    c0.068-0.404,0.159-0.801,0.231-1.205c0.023-0.206,0.042-0.423,0.082-0.626c0.037-0.178,0.098-0.343,0.128-0.523    c0.064-0.234,0.096-0.47,0.129-0.706c0.062-0.324,0.129-0.646,0.185-0.972c0.007-0.039,0.019-0.079,0.014-0.114    c-0.033-0.411,0.116-0.735,0.229-1.074c0.007-0.024,0.002-0.054,0.007-0.082c-3.85,4.582-6.312,12.517-4.792,22.126    c0.143,0.89,0.294,1.757,0.454,2.609c0.062-0.246,0.138-0.492,0.194-0.743c0.14-0.698,0.343-1.378,0.419-2.124    c0.033-0.407,0.167-0.792,0.263-1.189c0.065-0.299,0.116-0.602,0.17-0.905c0.009-0.042,0.002-0.091,0.026-0.122    c0.147-0.311,0.083-0.689,0.147-1.025c0.062-0.283,0.116-0.568,0.161-0.85C8.198,31.246,8.201,31.15,8.205,31.055z"/>
		<path d="M16.481,52.387c0.149-0.604,0.341-1.192,0.479-1.802c0.093-0.333,0.121-0.693,0.203-1.033    c0.103-0.386,0.216-0.755,0.298-1.143c0.129-0.648,0.285-1.284,0.512-1.889c0.063-0.196,0.063-0.445,0.092-0.664    c0.084-0.44,0.162-0.876,0.247-1.307c0.107-0.452,0.228-0.899,0.348-1.342c0.206-0.716,0.308-1.496,0.589-2.172    c0-0.027,0-0.068,0-0.1c0.091-0.35,0.172-0.705,0.254-1.05c0.062-0.241,0.165-0.463,0.231-0.702    c0.025-0.142,0.025-0.306,0.074-0.452c0.077-0.374,0.205-0.741,0.299-1.113c0.16-0.557,0.3-1.11,0.437-1.672    c0.113-0.488,0.227-0.985,0.302-1.482c0.081-0.418,0.139-0.841,0.192-1.266c0.049-0.278,0.062-0.561,0.072-0.843    c0.016-0.456,0-0.916,0.004-1.372c0.007-0.292-0.031-0.593,0.107-0.861c0.012-0.059,0.007-0.162,0.007-0.243    c0-1.715,0-3.425,0-5.139c0-0.206,0-0.417,0-0.622c-0.039-0.53-0.079-1.056-0.107-1.583c-0.021-0.974-0.042-1.951-0.074-2.925    c-0.009-0.206-0.073-0.294-0.201-0.304c-0.155-0.009-0.297,0.243-0.32,0.535c-0.002,0.136-0.019,0.29-0.063,0.399    c-0.26,0.632-0.26,1.404-0.512,2.042c-0.009,0.026,0,0.066-0.009,0.098c-0.061,0.398-0.119,0.802-0.189,1.192    c-0.069,0.348-0.18,0.682-0.143,1.056c0.005,0.038-0.009,0.085-0.032,0.114c-0.138,0.257-0.165,0.558-0.218,0.862    c-0.114,0.558-0.183,1.114-0.183,1.696c-0.002,0.049-0.018,0.098-0.03,0.145c-0.031,0.266-0.078,0.53-0.108,0.794    c-0.049,0.33-0.109,0.66-0.154,0.988c-0.023,0.189-0.067,0.376-0.085,0.565c-0.042,0.172-0.064,0.346-0.087,0.521    c-0.026,0.1-0.042,0.201-0.054,0.303c-0.049,0.322-0.082,0.645-0.115,0.967c-0.052,0.315-0.081,0.633-0.128,0.945    c-0.062,0.397-0.113,0.794-0.164,1.192c-0.028,0.175-0.056,0.346-0.091,0.518c-0.056,0.292-0.105,0.584-0.145,0.879    c-0.065,0.397-0.109,0.808-0.21,1.185c-0.091,0.335-0.238,0.636-0.366,0.946c-0.108,0.239-0.243,0.461-0.287,0.714    c-0.031,0.301-0.14,0.481-0.269,0.664c-0.077,0.091-0.131,0.224-0.189,0.347c-0.063,0.142-0.089,0.297-0.145,0.434    c-0.174,0.378-0.341,0.752-0.5,1.122c-0.067,0.146-0.156,0.285-0.231,0.429c-0.083,0.183-0.17,0.36-0.245,0.548    c-0.079,0.195-0.119,0.415-0.187,0.615c-0.121,0.37-0.257,0.732-0.378,1.104c-0.066,0.203-0.08,0.479-0.168,0.625    c-0.189,0.267-0.252,0.563-0.264,0.922c-0.009,0.164-0.051,0.346-0.117,0.479c-0.145,0.299-0.206,0.625-0.196,0.979    c0.004,0.271-0.067,0.477-0.21,0.65c-0.049,0.062-0.105,0.159-0.112,0.253c-0.091,0.436-0.157,0.874-0.248,1.307    c-0.064,0.36-0.149,0.71-0.22,1.068c-0.067,0.362-0.1,0.745-0.165,1.095c-0.125,0.436-0.231,0.857-0.199,1.332    c0.005,0.055-0.053,0.114-0.053,0.178c-0.064,0.205-0.129,0.406-0.173,0.62c-0.065,0.356-0.105,0.719-0.149,1.082    c-0.059,0.335-0.084,0.675-0.134,1.008c-0.038,0.155-0.119,0.297-0.119,0.452c-0.063,0.639-0.096,1.281-0.129,1.925    c-0.004,0.23-0.007,0.449-0.147,0.627c-0.049,0.075-0.089,0.217-0.107,0.336c-0.026,0.337-0.056,0.68-0.068,1.02    c-0.036,0.335-0.058,0.668-0.074,1.006c-0.007,0.05-0.036,0.118-0.049,0.146c-0.145,0.131-0.129,0.329-0.131,0.527    c-0.002,0.135-0.022,0.263-0.049,0.393c-0.044,0.461-0.091,0.924-0.143,1.385c-0.03,0.173-0.062,0.344-0.089,0.515    c-0.027,0.112-0.047,0.22-0.047,0.329c-0.004,0.475-0.002,0.949-0.002,1.423c0.797,0.901,1.762,1.629,2.917,2.112    c0.06-0.506,0.122-1.015,0.171-1.523c0.049-0.265,0.054-0.534,0.098-0.803c0.046-0.493,0.1-0.985,0.145-1.482    c0.019-0.121,0.009-0.251,0.033-0.37c0.051-0.406,0.159-0.816,0.159-1.223c0-0.726,0.25-1.368,0.278-2.075    c0.039-0.512,0.112-1.016,0.184-1.52c0.021-0.119,0.049-0.251,0.113-0.333c0.121-0.188,0.128-0.401,0.128-0.642    c0-0.187,0.04-0.374,0.063-0.554c0.047-0.251,0.128-0.504,0.128-0.753c-0.002-0.593,0.254-1.072,0.254-1.656    c0.002-0.301,0.164-0.588,0.234-0.89C16.403,52.935,16.416,52.643,16.481,52.387z"/>
	</g>
</g>
<g>
</g>
<g>
</g>
<g>
</g>
<g>
</g>
<g>
</g>
<g>
</g>
<g>
</g>
<g>
</g>
<g>
</g>
<g>
</g>
<g>
</g>
<g>
</g>
<g>
</g>
<g>
</g>
<g>
</g>
</svg>