<?xml version="1.0" encoding="windows-1252"?>
<!-- Generator: Adobe Illustrator 18.0.0, SVG Export Plug-In . SVG Version: 6.00 Build 0)  -->
<!DOCTYPE svg PUBLIC "-//W3C//DTD SVG 1.1//EN" "http://www.w3.org/Graphics/SVG/1.1/DTD/svg11.dtd">
<svg version="1.1" id="Capa_1" xmlns="http://www.w3.org/2000/svg" xmlns:xlink="http://www.w3.org/1999/xlink" x="0px" y="0px" viewBox="0 0 293.358 293.358" style="enable-background:new 0 0 293.358 293.358;" xml:space="preserve">
<g>
	<path d="M102.404,143.164l-37.635-37.635l31.35-31.349c11.27-11.27,29.505-11.27,40.775,0.001   c11.242,11.242,11.242,29.533,0,40.775l-16.715,16.715c9.25-4.244,19.515-6.651,30.336-6.701l10.439-0.048   c14.316-20.948,12.198-49.838-6.383-68.419c-21.04-21.04-55.09-21.042-76.131-0.001l-62.699,62.698   c-20.989,20.989-20.989,55.142,0.001,76.132C25.911,205.5,39.429,211.1,53.809,211.1c8.299,0,16.306-1.876,23.553-5.407   c-0.202-2.16-0.328-4.341-0.338-6.55C76.922,177.723,86.133,157.353,102.404,143.164z"/>
	<path d="M277.415,160.156c-10.147-10.056-23.603-15.593-37.889-15.593l-88.918,0.407c-29.683,0.138-53.72,24.398-53.584,54.08   c0.137,29.545,24.284,53.583,53.828,53.585l88.919-0.405c29.683-0.136,53.722-24.396,53.586-54.079   C293.292,183.771,287.629,170.277,277.415,160.156z M150.989,227.635h-0.135c-15.824-0.001-28.757-12.876-28.83-28.7   c-0.073-15.898,12.802-28.892,28.699-28.965l44.336-0.203c0.028,6.25,0.235,51.32,0.265,57.666L150.989,227.635z"/>
</g>
<g>
</g>
<g>
</g>
<g>
</g>
<g>
</g>
<g>
</g>
<g>
</g>
<g>
</g>
<g>
</g>
<g>
</g>
<g>
</g>
<g>
</g>
<g>
</g>
<g>
</g>
<g>
</g>
<g>
</g>
</svg>